<svg width="216" height="216" viewBox="0 0 216 216" fill="none" xmlns="http://www.w3.org/2000/svg">
<path d="M108 0C48.4929 0 0 48.4929 0 108C0 167.507 48.4929 216 108 216C167.507 216 216 167.507 216 108C216 48.4929 167.66 0 108 0ZM108 191.83C61.8017 191.83 24.3229 154.351 24.3229 108.153C24.3229 61.9547 61.8017 24.4759 108 24.4759C154.198 24.4759 191.677 61.9547 191.677 108.153C191.677 154.351 154.198 191.83 108 191.83ZM102.952 95.302L85.6657 78.1688L72.9688 90.8657L60.7309 78.4748L43.4447 95.6079L55.8357 107.999L42.8328 121.002L60.1189 138.288L72.9688 125.285L86.2776 138.594L103.564 121.308L90.2549 107.999L102.952 95.302ZM172.708 94.8452L155.422 77.5591L142.725 90.256L130.334 77.865L113.201 95.1512L125.592 107.542L112.589 120.392L129.722 137.678L142.725 124.675L156.034 137.984L173.32 120.851L160.011 107.542L172.708 94.8452Z" fill="#EC1C24"/>
</svg>